<?xml version="1.0" encoding="UTF-8" standalone="no"?>
<!DOCTYPE svg PUBLIC "-//W3C//DTD SVG 1.1//EN"
 "http://www.w3.org/Graphics/SVG/1.1/DTD/svg11.dtd">
<!-- Generated by graphviz version 5.0.0 (20220707.1540)
 -->
<!-- Title: strict Pages: 1 -->
<svg width="698pt" height="188pt"
 viewBox="0.00 0.00 698.00 188.00" xmlns="http://www.w3.org/2000/svg" xmlns:xlink="http://www.w3.org/1999/xlink">
<g id="graph0" class="graph" transform="scale(1 1) rotate(0) translate(4 184)">
<title>strict</title>
<polygon fill="white" stroke="transparent" points="-4,4 -4,-184 694,-184 694,4 -4,4"/>
<!-- Application -->
<g id="node1" class="node">
<title>Application</title>
<ellipse fill="#333333" stroke="black" cx="52" cy="-162" rx="51.99" ry="18"/>
<text text-anchor="middle" x="52" y="-158.3" font-family="Times,serif" font-size="14.00" fill="white">Application</text>
</g>
<!-- packages/marketing -->
<g id="node2" class="node">
<title>packages/marketing</title>
<path fill="#ef673e" stroke="#838b8b" d="M248,-180C248,-180 134,-180 134,-180 128,-180 122,-174 122,-168 122,-168 122,-156 122,-156 122,-150 128,-144 134,-144 134,-144 248,-144 248,-144 254,-144 260,-150 260,-156 260,-156 260,-168 260,-168 260,-174 254,-180 248,-180"/>
<text text-anchor="middle" x="191" y="-158.3" font-family="Lato" font-size="14.00" fill="white">packages/marketing</text>
</g>
<!-- packages/rails -->
<g id="node6" class="node">
<title>packages/rails</title>
<path fill="#ef673e" stroke="#838b8b" d="M460.5,-36C460.5,-36 381.5,-36 381.5,-36 375.5,-36 369.5,-30 369.5,-24 369.5,-24 369.5,-12 369.5,-12 369.5,-6 375.5,0 381.5,0 381.5,0 460.5,0 460.5,0 466.5,0 472.5,-6 472.5,-12 472.5,-12 472.5,-24 472.5,-24 472.5,-30 466.5,-36 460.5,-36"/>
<text text-anchor="middle" x="421" y="-14.3" font-family="Lato" font-size="14.00" fill="white">packages/rails</text>
</g>
<!-- packages/marketing&#45;&gt;packages/rails -->
<g id="edge2" class="edge">
<title>packages/marketing&#45;&gt;packages/rails</title>
<path fill="none" stroke="#838b8b" d="M218.74,-143.87C260.18,-118.28 338.31,-70.05 384.39,-41.6"/>
<polygon fill="#838b8b" stroke="#838b8b" points="386.48,-44.42 393.15,-36.19 382.81,-38.46 386.48,-44.42"/>
</g>
<!-- packages/core -->
<g id="node7" class="node">
<title>packages/core</title>
<path fill="#ef673e" stroke="#838b8b" d="M461,-108C461,-108 381,-108 381,-108 375,-108 369,-102 369,-96 369,-96 369,-84 369,-84 369,-78 375,-72 381,-72 381,-72 461,-72 461,-72 467,-72 473,-78 473,-84 473,-84 473,-96 473,-96 473,-102 467,-108 461,-108"/>
<text text-anchor="middle" x="421" y="-86.3" font-family="Lato" font-size="14.00" fill="white">packages/core</text>
</g>
<!-- packages/marketing&#45;&gt;packages/core -->
<g id="edge1" class="edge">
<title>packages/marketing&#45;&gt;packages/core</title>
<path fill="none" stroke="#838b8b" d="M246.97,-143.97C280.88,-133.65 324.18,-120.47 359.11,-109.83"/>
<polygon fill="#838b8b" stroke="#838b8b" points="360.18,-113.17 368.72,-106.91 358.14,-106.47 360.18,-113.17"/>
</g>
<!-- packages/managers -->
<g id="node3" class="node">
<title>packages/managers</title>
<path fill="#ef673e" stroke="#838b8b" d="M405.5,-180C405.5,-180 290.5,-180 290.5,-180 284.5,-180 278.5,-174 278.5,-168 278.5,-168 278.5,-156 278.5,-156 278.5,-150 284.5,-144 290.5,-144 290.5,-144 405.5,-144 405.5,-144 411.5,-144 417.5,-150 417.5,-156 417.5,-156 417.5,-168 417.5,-168 417.5,-174 411.5,-180 405.5,-180"/>
<text text-anchor="middle" x="348" y="-158.3" font-family="Lato" font-size="14.00" fill="white">packages/managers</text>
</g>
<!-- packages/managers&#45;&gt;packages/rails -->
<g id="edge4" class="edge">
<title>packages/managers&#45;&gt;packages/rails</title>
<path fill="none" stroke="#838b8b" d="M346.84,-143.84C346.33,-125.07 347.78,-94.64 360,-72 366.08,-60.71 375.6,-50.73 385.32,-42.56"/>
<polygon fill="#838b8b" stroke="#838b8b" points="387.79,-45.07 393.47,-36.13 383.45,-39.58 387.79,-45.07"/>
</g>
<!-- packages/managers&#45;&gt;packages/core -->
<g id="edge3" class="edge">
<title>packages/managers&#45;&gt;packages/core</title>
<path fill="none" stroke="#838b8b" d="M366.04,-143.7C375.06,-135.05 386.11,-124.45 395.94,-115.03"/>
<polygon fill="#838b8b" stroke="#838b8b" points="398.36,-117.55 403.16,-108.1 393.52,-112.5 398.36,-117.55"/>
</g>
<!-- packages/writers -->
<g id="node4" class="node">
<title>packages/writers</title>
<path fill="#ef673e" stroke="#838b8b" d="M542,-180C542,-180 448,-180 448,-180 442,-180 436,-174 436,-168 436,-168 436,-156 436,-156 436,-150 442,-144 448,-144 448,-144 542,-144 542,-144 548,-144 554,-150 554,-156 554,-156 554,-168 554,-168 554,-174 548,-180 542,-180"/>
<text text-anchor="middle" x="495" y="-158.3" font-family="Lato" font-size="14.00" fill="white">packages/writers</text>
</g>
<!-- packages/writers&#45;&gt;packages/rails -->
<g id="edge6" class="edge">
<title>packages/writers&#45;&gt;packages/rails</title>
<path fill="none" stroke="#838b8b" d="M495.92,-143.83C496.18,-125.05 494.35,-94.61 482,-72 475.84,-60.75 466.31,-50.77 456.59,-42.6"/>
<polygon fill="#838b8b" stroke="#838b8b" points="458.47,-39.62 448.45,-36.17 454.13,-45.12 458.47,-39.62"/>
</g>
<!-- packages/writers&#45;&gt;packages/core -->
<g id="edge5" class="edge">
<title>packages/writers&#45;&gt;packages/core</title>
<path fill="none" stroke="#838b8b" d="M476.7,-143.7C467.56,-135.05 456.36,-124.45 446.4,-115.03"/>
<polygon fill="#838b8b" stroke="#838b8b" points="448.75,-112.43 439.08,-108.1 443.94,-117.52 448.75,-112.43"/>
</g>
<!-- packages/guests -->
<g id="node5" class="node">
<title>packages/guests</title>
<path fill="#ef673e" stroke="#838b8b" d="M678,-180C678,-180 584,-180 584,-180 578,-180 572,-174 572,-168 572,-168 572,-156 572,-156 572,-150 578,-144 584,-144 584,-144 678,-144 678,-144 684,-144 690,-150 690,-156 690,-156 690,-168 690,-168 690,-174 684,-180 678,-180"/>
<text text-anchor="middle" x="631" y="-158.3" font-family="Lato" font-size="14.00" fill="white">packages/guests</text>
</g>
<!-- packages/guests&#45;&gt;packages/rails -->
<g id="edge8" class="edge">
<title>packages/guests&#45;&gt;packages/rails</title>
<path fill="none" stroke="#838b8b" d="M606.39,-143.76C580.52,-125.69 538.58,-96.58 502,-72 486.98,-61.91 470.27,-50.93 455.94,-41.6"/>
<polygon fill="#838b8b" stroke="#838b8b" points="457.66,-38.54 447.37,-36.02 453.84,-44.41 457.66,-38.54"/>
</g>
<!-- packages/guests&#45;&gt;packages/core -->
<g id="edge7" class="edge">
<title>packages/guests&#45;&gt;packages/core</title>
<path fill="none" stroke="#838b8b" d="M579.89,-143.97C550.42,-134.14 513.18,-121.73 482.16,-111.39"/>
<polygon fill="#838b8b" stroke="#838b8b" points="482.92,-107.95 472.33,-108.11 480.71,-114.59 482.92,-107.95"/>
</g>
<!-- packages/core&#45;&gt;packages/rails -->
<g id="edge9" class="edge">
<title>packages/core&#45;&gt;packages/rails</title>
<path fill="none" stroke="#838b8b" d="M421,-71.7C421,-63.98 421,-54.71 421,-46.11"/>
<polygon fill="#838b8b" stroke="#838b8b" points="424.5,-46.1 421,-36.1 417.5,-46.1 424.5,-46.1"/>
</g>
</g>
</svg>
